<?xml version="1.0" encoding="UTF-8" standalone="no"?>
<!-- Created with Inkscape (http://www.inkscape.org/) -->

<svg
   width="100"
   height="100"
   viewBox="0 0 26.458333 26.458333"
   version="1.1"
   id="svg1"
   inkscape:version="1.3.2 (091e20e, 2023-11-25)"
   sodipodi:docname="grab_crosshair.svg"
   xmlns:inkscape="http://www.inkscape.org/namespaces/inkscape"
   xmlns:sodipodi="http://sodipodi.sourceforge.net/DTD/sodipodi-0.dtd"
   xmlns="http://www.w3.org/2000/svg"
   xmlns:svg="http://www.w3.org/2000/svg">
  <sodipodi:namedview
     id="namedview1"
     pagecolor="#ffffff"
     bordercolor="#000000"
     borderopacity="0.25"
     inkscape:showpageshadow="2"
     inkscape:pageopacity="0.0"
     inkscape:pagecheckerboard="true"
     inkscape:deskcolor="#d1d1d1"
     inkscape:document-units="mm"
     inkscape:zoom="3.3638608"
     inkscape:cx="45.929368"
     inkscape:cy="50.834446"
     inkscape:window-width="1440"
     inkscape:window-height="847"
     inkscape:window-x="0"
     inkscape:window-y="25"
     inkscape:window-maximized="1"
     inkscape:current-layer="layer1" />
  <defs
     id="defs1" />
  <g
     inkscape:label="Layer 1"
     inkscape:groupmode="layer"
     id="layer1">
    <path
       id="path1"
       style="fill:#ffffff;stroke:#000000;stroke-width:0.702212;stroke-dasharray:none;fill-opacity:1"
       d="M 13.256555 0.40617676 A 12.850647 12.850647 0 0 0 0.40617676 13.256555 A 12.850647 12.850647 0 0 0 13.256555 26.10745 A 12.850647 12.850647 0 0 0 26.10745 13.256555 A 12.850647 12.850647 0 0 0 13.256555 0.40617676 z M 13.256555 2.4670329 A 10.789404 10.789404 0 0 1 24.046077 13.256555 A 10.789404 10.789404 0 0 1 13.256555 24.046077 A 10.789404 10.789404 0 0 1 2.4670329 13.256555 A 10.789404 10.789404 0 0 1 13.256555 2.4670329 z " />
  </g>
</svg>
